<svg width="175" height="76" viewBox="0 0 175 76" fill="none" xmlns="http://www.w3.org/2000/svg">
<path fill-rule="evenodd" clip-rule="evenodd" d="M73.1601 37.3882L75.8113 39.9662L73.2698 42.4273L74.2953 43.4551L71.699 43.7541L69.1026 44.0532L69.401 41.4511L69.6994 38.849L70.6975 39.8493L73.1601 37.3882ZM103.445 42.5408H113.748H119.002L101.274 24.7902L95.6318 30.4069L98.2384 33.0399L101.267 30.0769L110.033 38.8387H99.7475L85.7164 24.7593L80.1739 30.4516L82.7942 33.0777L85.7164 30.0803C86.711 31.0703 87.7057 32.0671 88.6969 33.064L90.813 35.1848L93.4505 37.8281L94.6132 38.9934L94.6063 39.0003C95.793 40.1862 96.9866 41.3721 98.1836 42.5476L103.445 42.5408ZM90.9708 37.5291L88.3745 37.8281L85.7781 38.1272L86.7659 39.1171L85.6032 40.248C80.4551 35.0817 75.338 29.9497 70.1727 24.7662L52.4512 42.5476H57.6884L70.1624 30.0838L74.189 34.0711L82.6433 42.5476L85.6409 45.3834L88.5562 42.5476L89.3897 41.7467L90.3774 42.7367L90.6758 40.1346L90.9708 37.5291ZM85.857 9.10901L99.2468 22.5078L96.5922 25.1305L96.2526 24.7971L85.8467 14.3888L75.0053 25.2887L72.3541 22.6556L85.857 9.10901Z" fill="black"/>
<path fill-rule="evenodd" clip-rule="evenodd" d="M108.777 11.9515C109.161 11.9893 109.542 12.0443 109.915 12.1165L110.605 9.47661C110.104 9.06756 109.861 8.38697 110.039 7.72356C110.282 6.82641 111.208 6.29705 112.104 6.54111C112.999 6.78516 113.527 7.71324 113.283 8.61039C113.102 9.27381 112.549 9.73785 111.908 9.8341L111.222 12.4568C111.606 12.5805 111.984 12.7249 112.351 12.883L115.074 8.08104C114.384 7.15296 114.264 5.86738 114.871 4.79493C115.691 3.3478 117.526 2.84251 118.967 3.66404C120.41 4.48557 120.915 6.32455 120.095 7.76824C119.488 8.8407 118.325 9.39411 117.176 9.27724L114.453 14.0792C114.772 14.3095 115.081 14.5536 115.376 14.8114L117.276 12.8865C117.042 12.2815 117.173 11.57 117.66 11.0853C118.318 10.4288 119.382 10.4356 120.037 11.0956C120.692 11.7556 120.685 12.8212 120.026 13.4777C119.539 13.9624 118.826 14.0861 118.226 13.8489L116.336 15.7635C116.603 16.0592 116.857 16.3685 117.09 16.6882L121.824 13.9039C121.69 12.7524 122.228 11.5803 123.288 10.9581C124.718 10.116 126.56 10.5972 127.4 12.0306C128.241 13.4639 127.76 15.3098 126.33 16.152C125.27 16.7741 123.984 16.6744 123.048 15.9938L118.318 18.7747C118.483 19.139 118.63 19.5103 118.761 19.8918L121.35 19.1803C121.45 18.5409 121.916 17.9909 122.582 17.8156C123.48 17.5785 124.399 18.1147 124.636 19.0153C124.873 19.9159 124.338 20.8371 123.439 21.0743C122.774 21.2496 122.098 20.9986 121.693 20.4933L119.117 21.2014C119.2 21.5864 119.262 21.9748 119.306 22.3736L124.77 22.3358C125.226 21.2736 126.279 20.5243 127.507 20.5174C129.167 20.5071 130.521 21.8442 130.532 23.5079C130.542 25.1716 129.208 26.5293 127.548 26.5397C126.32 26.5465 125.257 25.8144 124.783 24.7591L119.32 24.7969C119.282 25.206 119.22 25.6081 119.141 26L121.738 26.6806C122.146 26.1787 122.825 25.9347 123.487 26.1134C124.382 26.3575 124.91 27.2856 124.667 28.1827C124.423 29.0799 123.497 29.6092 122.602 29.3652C121.94 29.183 121.477 28.6296 121.381 27.9868L118.799 27.3096C118.675 27.6877 118.534 28.0555 118.377 28.413L123.127 31.1045C124.053 30.4136 125.336 30.2933 126.406 30.9017C127.85 31.7232 128.354 33.5622 127.534 35.0059C126.714 36.453 124.879 36.9583 123.439 36.1368C122.369 35.5284 121.817 34.3631 121.933 33.2116L117.19 30.5132C116.953 30.8432 116.699 31.1629 116.432 31.4654L118.349 33.3663C118.953 33.1325 119.663 33.2631 120.146 33.7512C120.801 34.4112 120.795 35.4768 120.136 36.1333C120.033 36.233 119.923 36.3189 119.807 36.3877L119.179 35.793L94.7696 11.5631C94.8451 11.429 94.9411 11.3018 95.0543 11.185C95.7128 10.5284 96.776 10.5353 97.4311 11.1953C97.9147 11.6834 98.0382 12.3984 97.8015 12.9999L99.7634 14.942C100.065 14.667 100.384 14.4058 100.713 14.1617L97.9079 9.37005C96.7589 9.50411 95.5893 8.96444 94.9685 7.9023C94.1283 6.46892 94.6084 4.62306 96.0386 3.78091C97.4688 2.93875 99.3106 3.41998 100.151 4.85336C100.772 5.91551 100.672 7.20452 99.9931 8.14291L102.799 12.938C103.142 12.7833 103.492 12.6424 103.848 12.5221L103.121 9.86503C102.483 9.76535 101.934 9.29787 101.759 8.63102C101.523 7.73043 102.058 6.80922 102.956 6.57204C103.855 6.33486 104.774 6.87109 105.011 7.77168C105.186 8.43853 104.935 9.11569 104.431 9.51786L105.151 12.1577C105.546 12.0718 105.947 12.0065 106.355 11.9618L106.321 6.42424C105.261 5.96707 104.514 4.9118 104.507 3.68122C104.496 2.01754 105.831 0.659785 107.491 0.649473C109.151 0.639161 110.505 1.97629 110.516 3.63998C110.526 4.87055 109.792 5.93613 108.739 6.41049L108.777 11.9515ZM118.229 4.97023C117.509 4.56119 116.59 4.81211 116.182 5.5374C115.773 6.25924 116.024 7.18045 116.744 7.5895C117.464 7.99855 118.384 7.74762 118.792 7.02577C119.203 6.30049 118.949 5.38272 118.229 4.97023ZM126.114 12.7902C125.696 12.0718 124.773 11.8312 124.06 12.254C123.343 12.6734 123.103 13.598 123.525 14.313C123.943 15.0314 124.866 15.272 125.579 14.8492C126.293 14.4298 126.533 13.5052 126.114 12.7902ZM129.043 23.5113C129.036 22.6795 128.361 22.0092 127.531 22.0161C126.701 22.023 126.032 22.7001 126.039 23.532C126.046 24.3638 126.721 25.0341 127.551 25.0272C128.381 25.0203 129.047 24.3432 129.043 23.5113ZM126.231 34.2634C126.639 33.5416 126.389 32.6203 125.668 32.2113C124.948 31.8023 124.029 32.0532 123.621 32.7785C123.213 33.5003 123.463 34.4215 124.183 34.8306C124.903 35.2396 125.819 34.9887 126.231 34.2634ZM96.8 5.0871C96.0832 5.50646 95.8431 6.43111 96.265 7.14608C96.6834 7.86449 97.606 8.1051 98.3194 7.68231C99.0362 7.26295 99.2763 6.3383 98.8545 5.62333C98.436 4.90836 97.5169 4.66775 96.8 5.0871ZM107.501 2.1516C106.671 2.15847 106.002 2.83563 106.009 3.66747C106.016 4.49931 106.691 5.1696 107.521 5.16272C108.351 5.15585 109.02 4.47869 109.013 3.64685C109.007 2.81501 108.327 2.14816 107.501 2.1516Z" fill="#F58220"/>
<path fill-rule="evenodd" clip-rule="evenodd" d="M1.08594 51.3747C2.58817 51.3747 4.08698 51.3678 5.58921 51.3782C7.40012 57.7235 9.22132 64.0654 11.0391 70.4074C12.8054 64.0654 14.5649 57.7201 16.3175 51.3747C17.6688 51.3678 19.0236 51.3713 20.3749 51.3713C22.1378 57.7166 23.8938 64.0654 25.6602 70.4108C27.4882 64.0689 29.2957 57.7166 31.1203 51.3713C32.6191 51.3713 34.1179 51.3678 35.6167 51.3747C33.0856 59.3666 30.551 67.3584 28.0164 75.3469C26.449 75.3469 24.8782 75.3503 23.3108 75.3434C21.6542 69.3659 19.9976 63.3883 18.3376 57.4107C16.681 63.3849 15.0451 69.3693 13.3919 75.3434C11.8245 75.3469 10.2537 75.3503 8.68628 75.34C6.15512 67.355 3.6171 59.3666 1.08594 51.3747ZM60.3522 52.6156C61.6692 52.6122 62.9862 52.6156 64.3032 52.6156C64.3067 53.994 64.3032 55.3689 64.3032 56.7473C66.169 56.7507 68.028 56.7439 69.8937 56.7507C69.8937 57.8988 69.8972 59.0503 69.8903 60.2019C68.028 60.2019 66.1656 60.1984 64.3032 60.2019C64.3067 63.4639 64.293 66.7294 64.3067 69.9949C64.2484 70.947 64.9858 71.8957 65.9701 71.9164C67.2631 71.9714 68.5596 71.9232 69.856 71.937C69.8629 73.0748 69.8595 74.2125 69.8595 75.3503C68.2783 75.3434 66.6938 75.364 65.1127 75.3434C63.679 75.3365 62.2488 74.6834 61.3674 73.5388C60.6574 72.6588 60.3419 71.5176 60.3556 70.3936C60.3487 66.9975 60.3556 63.6014 60.3522 60.2053C59.2855 60.2019 58.2154 60.2053 57.1488 60.2053C57.1453 59.0572 57.1488 57.9057 57.1488 56.7542C58.2154 56.7507 59.2855 56.7542 60.3556 56.7507C60.3522 55.3689 60.3522 53.9906 60.3522 52.6156ZM74.788 52.6156C76.105 52.6122 77.4221 52.6156 78.7391 52.6156C78.7425 53.994 78.7391 55.3689 78.7391 56.7507C80.6049 56.7542 82.4672 56.7473 84.3296 56.7542C84.3296 57.9023 84.333 59.0538 84.3262 60.2053C82.4638 60.2053 80.6014 60.2019 78.7391 60.2053C78.7425 63.4673 78.7288 66.7328 78.7425 69.9949C78.6808 70.9436 79.4148 71.8923 80.3957 71.9198C81.6921 71.9748 82.992 71.9232 84.2919 71.9404C84.2953 73.0782 84.2953 74.216 84.2953 75.3537C82.5701 75.3331 80.8415 75.3984 79.1164 75.3159C76.8047 75.1819 74.8292 73.116 74.8052 70.7924C74.7606 67.2656 74.8017 63.732 74.7846 60.2053C73.7179 60.2019 72.6479 60.2053 71.5812 60.2053C71.5812 59.0572 71.5812 57.9057 71.5812 56.7542C72.6513 56.7507 73.7214 56.7542 74.7915 56.7507C74.788 55.3689 74.788 53.9906 74.788 52.6156ZM37.0572 61.3156C37.1533 58.8613 39.3723 56.7576 41.8177 56.7611C45.9472 56.7336 50.08 56.7542 54.2095 56.7507C54.2129 62.9483 54.2129 69.1493 54.2095 75.3469C52.9027 75.3503 51.596 75.3503 50.2927 75.3503C50.2892 74.5081 50.2927 73.6694 50.2893 72.8273C49.3015 73.6625 48.3171 74.5047 47.3328 75.3469C45.4944 75.3434 43.6527 75.364 41.8143 75.3365C39.9279 75.3297 38.1445 74.0922 37.4242 72.3529C36.9201 71.2186 37.0435 69.9468 37.0298 68.7403C37.047 66.2654 36.9921 63.787 37.0572 61.3156ZM41.2381 61.1437C40.9294 61.6112 40.95 62.1955 40.9466 62.7318C40.9637 65.1413 40.9329 67.5544 40.9603 69.964C40.9329 70.9952 41.8349 71.9336 42.8707 71.9198C44.7228 71.9542 46.5817 71.9164 48.4372 71.937C48.9242 71.9198 49.4935 71.9851 49.8777 71.6208C50.3098 71.2736 50.2824 70.6755 50.2927 70.1736C50.2824 66.8497 50.2927 63.5223 50.2858 60.1984C47.8816 60.1984 45.4773 60.1915 43.0765 60.1984C42.3528 60.1675 41.6085 60.5043 41.2381 61.1437Z" fill="#F17E00"/>
<path fill-rule="evenodd" clip-rule="evenodd" d="M155.403 50.1339C156.71 50.1305 158.017 50.1305 159.323 50.1339C159.323 55.1181 159.32 60.0988 159.327 65.0796C162.218 62.3056 165.096 59.5145 167.99 56.7405C169.678 56.7474 171.365 56.7371 173.056 56.744C169.791 59.7207 166.516 62.6906 163.247 65.6673C166.797 68.895 170.36 72.1124 173.914 75.3401C172.188 75.3366 170.467 75.3538 168.745 75.3332C165.617 72.3874 162.468 69.4622 159.33 66.5267C159.327 69.4656 159.327 72.4011 159.327 75.3401C158.02 75.3435 156.713 75.3435 155.407 75.3401C155.403 66.9426 155.403 58.5383 155.403 50.1339ZM87.7272 51.3714C93.1188 51.3748 98.5138 51.3645 103.905 51.3748C106.004 51.3989 108.011 52.7841 108.769 54.7469C109.338 56.0943 109.132 57.5861 109.16 59.0126C109.16 60.776 108.189 62.4465 106.731 63.4124C108.134 64.3749 109.129 65.9767 109.156 67.7023C109.143 69.2216 109.359 70.8337 108.662 72.243C107.832 74.0683 105.912 75.3263 103.909 75.3435C98.5172 75.3504 93.1222 75.347 87.7272 75.347C87.7238 67.3551 87.7238 59.3667 87.7272 51.3714ZM91.9526 55.0287C91.9492 57.2183 91.9526 59.4079 91.9526 61.601C95.5196 61.601 99.0865 61.6078 102.657 61.5975C103.844 61.6731 104.907 60.6179 104.9 59.4389C104.914 58.2839 105.013 57.043 104.444 55.9946C104.108 55.3484 103.377 55.0081 102.667 55.0356C99.0934 55.0218 95.523 55.0322 91.9526 55.0287ZM91.9526 65.2205C91.9526 67.3792 91.9492 69.5344 91.9526 71.693C95.523 71.693 99.09 71.6999 102.66 71.6896C103.826 71.7652 104.917 70.7546 104.897 69.5756C104.89 68.6475 104.986 67.7023 104.811 66.7879C104.56 65.8564 103.641 65.1792 102.681 65.2205C99.1037 65.2136 95.5265 65.2239 91.9526 65.2205ZM113.159 61.3019C113.258 58.8511 115.477 56.7577 117.919 56.7577C122.049 56.7302 126.178 56.7508 130.308 56.7474C130.311 62.945 130.311 69.146 130.308 75.3435C129.001 75.347 127.694 75.347 126.391 75.347C126.387 74.5048 126.391 73.6661 126.387 72.8239C125.396 73.6592 124.415 74.5014 123.431 75.3435C121.596 75.3401 119.761 75.3607 117.926 75.3332C116.036 75.3298 114.25 74.0958 113.529 72.3599C113.018 71.2221 113.145 69.9469 113.131 68.7335C113.149 66.2586 113.094 63.7768 113.159 61.3019ZM117.062 62.1166C117.041 64.7358 117.045 67.3585 117.058 69.9778C117.038 71.0021 117.933 71.9302 118.959 71.9233C120.814 71.9577 122.67 71.9199 124.522 71.9405C125.012 71.9233 125.588 71.9887 125.979 71.6209C126.408 71.2737 126.381 70.6721 126.391 70.1737C126.381 66.8464 126.391 63.5259 126.384 60.2019C123.908 60.2088 121.431 60.1848 118.955 60.2123C117.95 60.2054 117.045 61.1025 117.062 62.1166ZM137.174 57.2046C138.045 56.7715 139.036 56.7337 139.99 56.744C142.188 56.7577 144.387 56.7268 146.589 56.7577C148.475 56.7646 150.272 57.9849 150.989 59.731C151.486 60.8722 151.37 62.1475 151.38 63.3609C150.073 63.3643 148.77 63.3643 147.467 63.3609C147.439 62.6218 147.583 61.8072 147.179 61.1472C146.808 60.5182 146.074 60.171 145.361 60.2019C143.643 60.2054 141.924 60.1848 140.206 60.2123C139.198 60.2088 138.296 61.1025 138.309 62.1166C138.289 64.7324 138.292 67.3517 138.306 69.964C138.278 70.9953 139.177 71.9302 140.209 71.9233C141.921 71.9508 143.636 71.9302 145.351 71.9337C146.071 71.968 146.812 71.6209 147.179 70.9815C147.58 70.3147 147.446 69.5069 147.47 68.7644C148.773 68.761 150.08 68.761 151.384 68.7644C151.377 69.9709 151.49 71.2324 150.993 72.3633C150.276 74.1026 148.485 75.3229 146.606 75.3298C144.401 75.3607 142.195 75.3298 139.99 75.3435C139.04 75.3573 138.052 75.316 137.188 74.8795C135.538 74.1267 134.403 72.3874 134.389 70.569C134.362 67.6129 134.375 64.6499 134.382 61.6938C134.341 59.8273 135.459 57.978 137.174 57.2046Z" fill="black"/>
</svg>
